<?xml version="1.0" encoding="UTF-8" standalone="no"?><!DOCTYPE svg PUBLIC "-//W3C//DTD SVG 1.1//EN" "http://www.w3.org/Graphics/SVG/1.1/DTD/svg11.dtd"><svg width="100%" height="100%" viewBox="0 0 560 1610" version="1.1" xmlns="http://www.w3.org/2000/svg" xmlns:xlink="http://www.w3.org/1999/xlink" xml:space="preserve" style="fill-rule:evenodd;clip-rule:evenodd;stroke-linecap:round;stroke-linejoin:round;stroke-miterlimit:1.41421;"><rect x="-21.058" y="-10.897" width="603.229" height="1633.39" style="fill:#ebf6ff;"/><path id="Coeur" d="M287.155,228.671c0,0 -3.56,-23.226 -27.741,-23.226c-24.18,0 -25.907,23.889 -25.907,26.979c0,3.091 -3.5,16.636 22.236,44.571c25.737,27.934 30.935,37.81 30.935,37.81c0,0 12.067,-17.72 31.521,-38.093c19.454,-20.373 22.565,-36.913 22.522,-44.495c-0.044,-7.582 -6.073,-26.516 -26.678,-26.574c-20.605,-0.058 -26.888,23.028 -26.888,23.028l0,0Z" style="fill:#dceffe;"/><path id="Coeur1" d="M226.899,1458.97c0,0 -3.559,-23.226 -27.74,-23.226c-24.18,0 -25.907,23.889 -25.907,26.98c0,3.09 -3.5,16.635 22.236,44.57c25.737,27.934 30.935,37.81 30.935,37.81c0,0 12.067,-17.72 31.521,-38.093c19.454,-20.373 22.565,-36.913 22.521,-44.495c-0.043,-7.582 -6.072,-26.516 -26.677,-26.574c-20.605,-0.058 -26.889,23.028 -26.889,23.028l0,0Z" style="fill:#dceffe;"/><g id="Pizza"><path d="M129.387,519.803c21.53,-0.711 66.247,-38.009 69.685,-61.184c13.997,6.239 -0.032,0.149 13.935,6.177c-4.809,28.754 -50.284,63.971 -79.041,68.865c-3.608,-10.327 -0.103,-1.055 -4.579,-13.858Z" style="fill:#dceffe;"/><path d="M94.787,410.992c0,0 26.854,84.235 32.428,103.779c18.608,-0.566 64.105,-38.835 66.894,-58.024c-14.193,-6.859 -99.322,-45.755 -99.322,-45.755Z" style="fill:#dceffe;"/><path d="M133.592,470.255c5.414,-4.526 13.703,-3.545 18.497,2.189c4.794,5.735 4.29,14.065 -1.124,18.592c-5.415,4.527 -13.703,3.546 -18.497,-2.189c-4.794,-5.734 -4.291,-14.065 1.124,-18.592Z" style="fill:#ebf6ff;"/><path d="M123.305,425.354c3.985,-3.331 9.908,-2.82 13.218,1.14c3.311,3.96 2.764,9.879 -1.221,13.21c-3.985,3.331 -9.907,2.821 -13.218,-1.139c-3.311,-3.96 -2.763,-9.88 1.221,-13.211Z" style="fill:#ebf6ff;"/><path d="M170.672,456.043c2.262,-1.891 5.565,-1.671 7.372,0.49c1.808,2.162 1.438,5.452 -0.823,7.343c-2.262,1.891 -5.566,1.671 -7.373,-0.49c-1.807,-2.162 -1.438,-5.452 0.824,-7.343Z" style="fill:#ebf6ff;"/></g><g id="Pizza1"><path d="M223.173,1038.03c1.785,21.467 41.268,64.267 64.585,66.544c-5.532,14.29 -0.151,-0.025 -5.473,14.226c-28.959,-3.367 -66.401,-47.028 -72.725,-75.505c10.134,-4.12 1.049,-0.156 13.613,-5.265Z" style="fill:#dceffe;"/><path d="M330.121,998.038c0,0 -82.79,31.025 -102.031,37.567c1.494,18.557 41.986,62.087 61.29,63.914c6.143,-14.517 40.741,-101.481 40.741,-101.481Z" style="fill:#dceffe;"/><path d="M272.868,1039.75c4.791,5.182 4.225,13.509 -1.263,18.583c-5.488,5.075 -13.833,4.987 -18.625,-0.194c-4.791,-5.182 -4.225,-13.509 1.263,-18.583c5.488,-5.075 13.834,-4.988 18.625,0.194Z" style="fill:#ebf6ff;"/><path d="M317.2,1027.24c3.526,3.814 3.311,9.755 -0.478,13.259c-3.79,3.504 -9.73,3.253 -13.256,-0.561c-3.525,-3.813 -3.311,-9.754 0.479,-13.258c3.789,-3.504 9.729,-3.253 13.255,0.56Z" style="fill:#ebf6ff;"/><path d="M288.914,1076.08c2.001,2.165 1.947,5.476 -0.122,7.388c-2.069,1.913 -5.373,1.709 -7.375,-0.456c-2.001,-2.165 -1.947,-5.475 0.122,-7.388c2.069,-1.913 5.373,-1.708 7.375,0.456Z" style="fill:#ebf6ff;"/></g><g id="Manette"><path d="M66.016,74.342c12.367,-0.186 72.019,0.195 82.742,0.195c10.724,0 32.07,12.109 32.081,38.711c0.011,26.601 -17.342,39.178 -39.221,39.113c-21.878,-0.065 -25.244,-8.098 -25.244,-8.098l-18.144,-0.51c0,0 -1.259,8.55 -26.068,8.54c-24.808,-0.011 -38.244,-19.32 -38.178,-39.559c0.065,-20.239 14.954,-38.135 32.032,-38.392l0,0Z" style="fill:#dceffe;"/><path d="M66.119,90.019l14.152,-0.087l0,16.669l17.048,0l0,13.902l-17.052,0l0,16.811l-13.554,0l0,-16.551l-18.221,0l0,-14.207l17.592,0l0.035,-16.537l0,0Z" style="fill:#ebf6ff;"/><ellipse cx="131.596" cy="123.429" rx="9.92" ry="9.616" style="fill:#ebf6ff;"/><ellipse cx="151.554" cy="103.339" rx="9.92" ry="9.616" style="fill:#ebf6ff;"/></g><g id="Manette1"><path d="M400.62,720.999c12.368,-0.186 72.019,0.194 82.742,0.194c10.724,0 32.071,12.109 32.081,38.711c0.011,26.602 -17.341,39.179 -39.22,39.113c-21.879,-0.065 -25.244,-8.097 -25.244,-8.097l-18.145,-0.511c0,0 -1.259,8.551 -26.067,8.54c-24.809,-0.011 -38.245,-19.319 -38.179,-39.559c0.065,-20.239 14.954,-38.134 32.032,-38.391l0,0Z" style="fill:#dceffe;"/><path d="M400.724,736.675l14.151,-0.086l0,16.668l17.048,0l0,13.902l-17.052,0l0,16.811l-13.554,0l0,-16.55l-18.221,0l0,-14.207l17.592,0l0.036,-16.538l0,0Z" style="fill:#ebf6ff;"/><ellipse cx="466.2" cy="770.085" rx="9.92" ry="9.616" style="fill:#ebf6ff;"/><ellipse cx="486.158" cy="749.995" rx="9.92" ry="9.616" style="fill:#ebf6ff;"/></g><g id="Brackets"><path d="M435.05,510.619c2.553,-1.589 5.912,0.033 6.998,2.353c1.086,2.32 0.558,4.863 -1.458,6.088c-2.017,1.225 -28.557,12.762 -30.477,13.726c-1.92,0.964 -2.658,1.746 -0.13,3.231c2.527,1.486 25.473,11.696 28.218,13.007c2.744,1.312 5.244,4.445 3.525,7.26c-1.72,2.815 -4.731,3.875 -7.868,2.528c-3.136,-1.347 -33.555,-15.549 -36.189,-17.244c-2.633,-1.694 -3.319,-3.222 -3.25,-6.826c0.07,-3.603 -0.175,-4.87 3.473,-7.059c3.648,-2.189 34.605,-15.475 37.158,-17.064l0,0Z" style="fill:#dceffe;"/><path d="M517.966,510.619c-2.553,-1.589 -5.913,0.033 -6.999,2.353c-1.086,2.32 -0.557,4.863 1.459,6.088c2.016,1.225 28.557,12.762 30.477,13.726c1.919,0.964 2.657,1.746 0.13,3.231c-2.527,1.486 -25.473,11.696 -28.218,13.007c-2.744,1.312 -5.244,4.445 -3.525,7.26c1.72,2.815 4.731,3.875 7.867,2.528c3.137,-1.347 33.556,-15.549 36.189,-17.244c2.634,-1.694 3.32,-3.222 3.25,-6.826c-0.069,-3.603 0.175,-4.87 -3.472,-7.059c-3.648,-2.189 -34.605,-15.475 -37.158,-17.064l0,0Z" style="fill:#dceffe;"/><path d="M491.468,492.76c1.216,-2.511 4.053,-2.843 6.278,-1.825c2.225,1.017 3.83,2.37 2.789,5.193c-1.042,2.822 -38.253,79.222 -39.503,81.559c-1.25,2.337 -4.026,5.532 -8.004,3.404c-3.978,-2.128 -2.217,-4.601 -0.445,-8.293c1.286,-2.679 37.668,-77.526 38.885,-80.038Z" style="fill:#dceffe;"/></g><g id="Brackets1"><path d="M85.977,1210.08c2.553,-1.589 5.912,0.033 6.998,2.353c1.086,2.321 0.558,4.863 -1.458,6.088c-2.017,1.225 -28.557,12.762 -30.477,13.727c-1.919,0.964 -2.658,1.745 -0.13,3.231c2.527,1.486 25.473,11.695 28.218,13.007c2.744,1.312 5.244,4.444 3.525,7.259c-1.72,2.815 -4.731,3.875 -7.868,2.528c-3.136,-1.347 -33.555,-15.549 -36.189,-17.243c-2.633,-1.695 -3.319,-3.222 -3.25,-6.826c0.07,-3.604 -0.175,-4.871 3.473,-7.06c3.648,-2.189 34.605,-15.475 37.158,-17.064l0,0Z" style="fill:#dceffe;"/><path d="M168.893,1210.08c-2.553,-1.589 -5.913,0.033 -6.998,2.353c-1.086,2.321 -0.558,4.863 1.458,6.088c2.017,1.225 28.557,12.762 30.477,13.727c1.919,0.964 2.657,1.745 0.13,3.231c-2.527,1.486 -25.473,11.695 -28.218,13.007c-2.744,1.312 -5.244,4.444 -3.525,7.259c1.72,2.815 4.731,3.875 7.867,2.528c3.137,-1.347 33.556,-15.549 36.189,-17.243c2.634,-1.695 3.32,-3.222 3.25,-6.826c-0.069,-3.604 0.175,-4.871 -3.472,-7.06c-3.648,-2.189 -34.605,-15.475 -37.158,-17.064l0,0Z" style="fill:#dceffe;"/><path d="M142.395,1192.22c1.216,-2.512 4.053,-2.843 6.278,-1.826c2.225,1.017 3.83,2.37 2.789,5.193c-1.041,2.823 -38.253,79.223 -39.503,81.559c-1.25,2.337 -4.026,5.532 -8.004,3.404c-3.978,-2.128 -2.216,-4.601 -0.445,-8.293c1.286,-2.679 37.668,-77.526 38.885,-80.037l0,0Z" style="fill:#dceffe;"/></g><g id="Disque-dur"><path d="M187.944,642.3c-3.161,0 -5.549,1.857 -5.905,5.027c-0.356,3.169 -8.83,73.569 -9.117,77.061c-0.286,3.492 -0.433,5.071 -0.441,7.624c-0.008,2.553 0.191,12.147 0.191,15.541c0,3.395 4.525,6.199 8.736,6.26c4.21,0.06 85.813,-0.131 89.885,-0.2c4.073,-0.07 8.057,-2.551 7.91,-6.199c-0.147,-3.648 -0.052,-14.085 -0.052,-14.98c0,-0.894 -0.6,-3.872 -1.104,-7.989c-0.503,-4.118 -8.249,-73.49 -8.665,-77.268c-0.417,-3.778 -1.911,-5.072 -5.714,-5.133c-3.803,-0.062 -72.562,0.256 -75.724,0.256l0,0Z" style="fill:#dbefff;"/><path d="M219.375,665.089l12.733,0l0,18.276l10.305,0l-16.354,18.2l-16.652,-18.497l9.882,0l0.086,-17.979l0,0Z" style="fill:#ebf6ff;"/><path d="M181.567,729.181c-3.02,-0.099 -4.868,0.961 -4.874,3.733c-0.006,2.772 -0.105,10.021 -0.105,12.644c0,2.624 0.762,5.087 4.818,5.148c4.056,0.062 84.117,0.111 88.03,0.111c3.913,0 6.239,-1.774 6.431,-5.514c0.193,-3.741 0.094,-8.175 -0.049,-11.518c-0.143,-3.343 -1.848,-4.733 -5.216,-4.733c-3.367,0 -86.014,0.228 -89.035,0.129l0,0Z" style="fill:#ebf6ff;"/><circle cx="187.61" cy="740.014" r="3.91" style="fill:#dbefff;"/></g><g id="Disque-dur1"><path d="M417.778,1283.55c-3.162,0 -5.55,1.857 -5.906,5.027c-0.356,3.169 -8.83,73.569 -9.116,77.061c-0.287,3.492 -0.434,5.071 -0.442,7.624c-0.007,2.553 0.192,12.147 0.192,15.541c0,3.395 4.524,6.199 8.735,6.26c4.211,0.06 85.813,-0.131 89.886,-0.2c4.072,-0.07 8.056,-2.551 7.909,-6.199c-0.147,-3.648 -0.052,-14.085 -0.052,-14.98c0,-0.894 -0.6,-3.872 -1.103,-7.989c-0.503,-4.118 -8.249,-73.49 -8.666,-77.268c-0.416,-3.778 -1.911,-5.072 -5.714,-5.133c-3.803,-0.062 -72.562,0.256 -75.723,0.256l0,0Z" style="fill:#dbefff;"/><path d="M449.209,1306.34l12.733,0l0,18.276l10.304,0l-16.354,18.2l-16.652,-18.497l9.882,0l0.087,-17.979Z" style="fill:#ebf6ff;"/><path d="M411.401,1370.43c-3.021,-0.099 -4.868,0.961 -4.874,3.733c-0.006,2.772 -0.106,10.021 -0.106,12.644c0,2.624 0.762,5.087 4.818,5.148c4.057,0.062 84.117,0.111 88.03,0.111c3.913,0 6.239,-1.774 6.432,-5.514c0.192,-3.741 0.093,-8.175 -0.05,-11.518c-0.143,-3.343 -1.848,-4.733 -5.215,-4.733c-3.367,0 -86.015,0.228 -89.035,0.129l0,0Z" style="fill:#ebf6ff;"/><circle cx="417.444" cy="1381.26" r="3.91" style="fill:#dbefff;"/></g><g id="Souris"><path d="M79.009,926.006c0,0 1.641,7.329 1.433,13.989c-0.208,6.659 -4.314,10.427 -4.314,21.036c0,10.61 3.725,25.473 28.373,25.542c24.649,0.07 33.576,-24.582 33.834,-50.54c0.052,-5.267 -1.12,-10.115 -1.12,-10.115l-58.206,0.088l0,0Z" style="fill:#dbefff;"/><path d="M108.446,891.145c17.471,1.256 24.066,13.456 28.598,31.742c-11.043,0.339 -28.512,-0.017 -28.512,-0.017c0,0 -0.07,-20.281 -0.086,-31.725l0,0Z" style="fill:#dbefff;"/><path d="M105.613,891.201c-6.104,0 -16.956,1.423 -22.948,7.893c-5.992,6.469 -5.809,13.55 -5.371,17.456c0.421,3.759 0.716,3.373 1.016,6.69c4.515,0.05 27.659,-0.108 27.659,-0.108c0,0 -0.282,-26.244 -0.356,-31.931l0,0Z" style="fill:#dbefff;"/><path d="M92.258,845.675c-2.67,4.868 -6.617,12.45 2.465,22.162c9.082,9.711 8.187,15.18 8.361,23.741" style="fill:none;stroke-width:5px;stroke:#dbefff;"/></g><g id="Souris1"><path d="M478.613,90.449c0,0 1.641,7.329 1.433,13.988c-0.208,6.66 -4.314,10.428 -4.314,21.037c0,10.609 3.725,25.473 28.374,25.542c24.648,0.07 33.575,-24.582 33.833,-50.54c0.053,-5.268 -1.12,-10.115 -1.12,-10.115l-58.206,0.088l0,0Z" style="fill:#dbefff;"/><path d="M508.05,55.588c17.471,1.256 24.066,13.456 28.599,31.741c-11.044,0.34 -28.513,-0.017 -28.513,-0.017c0,0 -0.069,-20.28 -0.086,-31.724l0,0Z" style="fill:#dbefff;"/><path d="M505.217,55.644c-6.104,0 -16.956,1.423 -22.948,7.892c-5.992,6.47 -5.809,13.55 -5.371,17.456c0.421,3.76 0.716,3.373 1.016,6.691c4.515,0.05 27.659,-0.109 27.659,-0.109c0,0 -0.282,-26.243 -0.356,-31.93l0,0Z" style="fill:#dbefff;"/><path d="M491.862,10.118c-2.67,4.867 -6.617,12.45 2.466,22.161c9.082,9.712 8.187,15.181 8.36,23.742" style="fill:none;stroke-width:5px;stroke:#dbefff;"/></g><path id="Vaguelette" d="M20.359,765.586c7.085,4.747 -1.532,27.139 5.978,30.786c7.511,3.646 21.48,-14.325 29.685,-9.507c8.205,4.818 -2.424,25.148 5.883,30.003c8.307,4.854 23.544,-15.556 30.243,-9.094" style="fill:none;stroke-width:5px;stroke:#dbefff;"/><path id="Vaguelette1" d="M413.235,436.739c7.691,-3.684 22.584,15.127 29.545,10.517c6.96,-4.611 -1.404,-25.78 6.919,-30.393c8.322,-4.612 20.416,14.882 28.822,10.2c8.406,-4.681 -1.413,-28.182 7.558,-30.663" style="fill:none;stroke-width:5px;stroke:#dbefff;"/><path id="Vaguelette2" d="M457.474,1102.01c7.321,-4.372 23.873,12.999 30.382,7.771c6.51,-5.228 -3.755,-25.544 4.111,-30.898c7.866,-5.354 21.691,12.953 29.634,7.522c7.943,-5.43 -3.984,-27.935 4.723,-31.226" style="fill:none;stroke-width:5px;stroke:#dbefff;"/><path id="Spirale" d="M371.494,598.655c-11.789,-6.853 -37.005,-5.563 -36.565,18.381c0.44,23.944 24.965,25.242 35.397,14.389c10.432,-10.852 1.574,-25.687 -8.844,-27.522c-10.418,-1.835 -25.892,8.682 -14.077,21.414c11.815,12.732 27.153,-7.759 13.359,-12.708c-9.44,-2.128 -8.928,7.488 -5.26,6.666" style="fill:none;stroke-width:5px;stroke:#dbefff;"/><path id="Spirale1" d="M451.654,898.533c-11.789,-6.852 -37.005,-5.562 -36.565,18.382c0.44,23.944 24.965,25.242 35.397,14.389c10.432,-10.853 1.575,-25.687 -8.843,-27.522c-10.418,-1.836 -25.893,8.682 -14.078,21.414c11.815,12.732 27.153,-7.759 13.359,-12.708c-9.44,-2.128 -8.928,7.487 -5.26,6.665" style="fill:none;stroke-width:5px;stroke:#dbefff;"/><path id="Spirale2" d="M462.212,1189.34c-11.79,-6.853 -37.006,-5.563 -36.566,18.381c0.441,23.944 24.965,25.242 35.397,14.389c10.432,-10.852 1.575,-25.687 -8.843,-27.522c-10.418,-1.835 -25.893,8.682 -14.078,21.414c11.816,12.732 27.153,-7.759 13.36,-12.708c-9.441,-2.128 -8.929,7.488 -5.261,6.666" style="fill:none;stroke-width:5px;stroke:#dbefff;"/><path id="Spirale3" d="M360.394,1528.1c-11.79,-6.853 -37.006,-5.563 -36.565,18.381c0.44,23.944 24.964,25.242 35.396,14.389c10.432,-10.853 1.575,-25.687 -8.843,-27.522c-10.418,-1.836 -25.893,8.682 -14.077,21.414c11.815,12.732 27.152,-7.759 13.359,-12.708c-9.44,-2.128 -8.928,7.487 -5.261,6.665" style="fill:none;stroke-width:5px;stroke:#dbefff;"/><path id="Spirale4" d="M101.345,1457.69c-11.79,-6.852 -37.006,-5.562 -36.565,18.382c0.44,23.944 24.965,25.242 35.397,14.389c10.431,-10.853 1.574,-25.687 -8.844,-27.522c-10.418,-1.836 -25.893,8.682 -14.077,21.414c11.815,12.732 27.153,-7.759 13.359,-12.708c-9.44,-2.128 -8.928,7.487 -5.26,6.665" style="fill:none;stroke-width:5px;stroke:#dbefff;"/><path id="Spirale5" d="M119.874,229.148c-11.789,-6.853 -37.005,-5.562 -36.565,18.382c0.44,23.944 24.965,25.241 35.397,14.389c10.432,-10.853 1.575,-25.687 -8.843,-27.523c-10.418,-1.835 -25.893,8.682 -14.078,21.414c11.815,12.733 27.153,-7.758 13.359,-12.708c-9.44,-2.127 -8.928,7.488 -5.26,6.666" style="fill:none;stroke-width:5px;stroke:#dbefff;"/></svg>